<svg id="penicon" xmlns="http://www.w3.org/2000/svg" viewBox="0 0 85.5 8.6">
<path class="peniconfill" d="M74.8 8.2c0 0.1 0.1 0.1 0.2 0.1 1.3-0.5 10.2-3.9 10.2-4.1 0-0.2-8.9-3.6-10.2-4.1 -0.1 0-0.1 0-0.1 0.1V8.2z"/>
<path class="peniconfill" d="M1.8 2.6C0.6 3 0.4 3.9 0.4 4.3S0.6 5.6 1.8 5.9s2.6 0.4 2.6 0.4V4.3 2.2C4.4 2.2 3.1 2.3 1.8 2.6z"/>
<path class="peniconfill" d="M54.2 4.3c0 0.5 0.4 0.9 1 0.9h10.5c0.5 0 1-0.4 1-0.8s-0.4-0.8-1-0.8H55.2C54.7 3.4 54.2 3.8 54.2 4.3z"/>
<path class="peniconfill" d="M28.9 1.2C23 1.3 5.9 1.8 5.9 1.8v2.4 2.4c0 0 17.1 0.5 23.1 0.6 1.6 0 3.5 0 5.6 0.1V1.2C32.4 1.2 30.5 1.2 28.9 1.2z"/>
<path class="peniconfill" d="M66.6 1.1c-3.4 0-19.3 0-30.7 0.1V7.4C47.3 7.5 63.2 7.5 66.6 7.5c3.7 0 6.1 0.7 6.6 0.9 0.1 0 0.1 0 0.1-0.1V0.3c0-0.1-0.1-0.1-0.1-0.1C72.7 0.4 70.3 1.1 66.6 1.1zM66 5.8L55 5.8c-0.8 0-1.5-0.5-1.6-1.3 -0.2-1 0.6-1.8 1.5-1.8l11 0c0.8 0 1.5 0.5 1.6 1.3C67.7 5 66.9 5.8 66 5.8z"/>
</svg>
